# xmcd CD database file generated by Grip 3.2.0
# 
# Track frame offsets:
#       150
#       16506
#       34390
#       59446
#       77111
#       95592
#       114963
#       139631
#       164160
#       184659
#       209349
#       240543
#       244828
#       256387
# 
# Disc length: 3974 seconds
# 
# Revision: 1
# Processed by: cddbd v1.5.2PL0 Copyright (c) Steve Scherf et al.
# Submitted via: Grip 3.2.0
# 
DISCID=bc0f840e
DTITLE=The Operative - An Adoring Circle Of Radical Calamity
DYEAR=2006
DGENRE=Industrial
TTITLE0=Everything Is Permitted
TTITLE1=Revival (Apocalyptic Pulpit)
TTITLE2=Dawns Turbulent Rise
TTITLE3=Disembodied
TTITLE4=World Distortion (Zoneing Time)
TTITLE5=Photophobia
TTITLE6=Freek Floor
TTITLE7=Dead Beat
TTITLE8=Fleeing Tribal Rule
TTITLE9=People Like Her Are Poison
TTITLE10=Finding The Funk
TTITLE11=Suspects and Conspirators
TTITLE12=A Man A Fuse A Bomb
TTITLE13=Revivalist
EXTD=
EXTT0=
EXTT1=
EXTT2=
EXTT3=
EXTT4=
EXTT5=
EXTT6=
EXTT7=
EXTT8=
EXTT9=
EXTT10=
EXTT11=
EXTT12=
EXTT13=
PLAYORDER=
